<?xml version="1.0" encoding="utf-8"?>
<svg viewBox="0 0 339 299" xmlns="http://www.w3.org/2000/svg">
  <path d="M 137.433 78.672 L 203.854 78.672 L 251.994 6.767 L 333.648 185.92 L 270.274 274.277 L 235.541 290.121 L 106.965 290.73 L 72.231 274.278 L 8.248 185.31 L 90.512 6.158 Z M 220.287 131.482 C 204.477 131.482 191.66 144.3 191.66 160.108 C 191.66 175.917 204.477 188.734 220.287 188.734 C 236.095 188.734 248.912 175.917 248.912 160.108 C 248.912 144.3 236.095 131.482 220.287 131.482 Z M 119.562 131.163 C 103.697 131.163 90.836 144.024 90.836 159.889 C 90.836 175.754 103.697 188.615 119.562 188.615 C 135.427 188.615 148.288 175.754 148.288 159.889 C 148.288 144.024 135.427 131.163 119.562 131.163 Z" style="stroke-linejoin: round; stroke-width: 4px; fill: rgb(153, 46, 46); stroke: rgb(153, 46, 46);"/>
  <path style="fill: rgb(216, 216, 216); stroke: rgb(0, 0, 0);" d="M 245.076 73.835"/>
  <path style="fill: rgb(216, 216, 216); stroke: rgb(0, 0, 0);" d="M 210.466 66.639"/>
  <path style="stroke: rgb(153, 46, 46); fill: rgb(153, 46, 46);" d="M 71.09 275.243 C 82.603 289.675 86.45 291.146 106.879 292.259"/>
  <path style="stroke: rgb(153, 46, 46); fill: rgb(153, 46, 46);" d="M 235.937 291.605 C 247.516 277.173 251.385 275.702 271.93 274.589" transform="matrix(-1, 0, 0, -1, 507.866981, 566.193978)"/>
  <path d="M 238.478 165.534 C 238.478 172.223 235.725 178.375 231.345 182.755 C 226.965 187.135 220.813 189.888 214.124 189.888 C 207.435 189.888 201.283 187.135 196.903 182.755 C 192.523 178.375 189.77 172.223 189.77 165.534 C 189.77 158.845 192.523 152.693 196.903 148.313 C 201.283 143.933 207.435 141.18 214.124 141.18 C 220.813 141.18 226.965 143.933 231.345 148.313 C 235.725 152.693 238.478 158.845 238.478 165.534 Z M 230.638 149.02 C 226.384 144.767 220.609 142.18 214.124 142.18 C 207.639 142.18 201.864 144.767 197.61 149.02 C 193.357 153.274 190.77 159.049 190.77 165.534 C 190.77 172.019 193.357 177.794 197.61 182.048 C 201.864 186.301 207.639 188.888 214.124 188.888 C 220.609 188.888 226.384 186.301 230.638 182.048 C 234.891 177.794 237.478 172.019 237.478 165.534 C 237.478 159.049 234.891 153.274 230.638 149.02 Z" style="fill: none;"/>
</svg>