<?xml version="1.0" encoding="utf-8"?>
<svg viewBox="0 0 672 840" xmlns="http://www.w3.org/2000/svg">
  <path style="stroke: rgb(0, 0, 0);" d="M 286.604 99.273"/>
  <path style="stroke: rgb(0, 0, 0);" d="M 251.994 92.077"/>
  <rect width="672" height="840" style="fill: rgb(224, 224, 224);"/>
  <path d="M 265.233 355.509 L 331.654 355.509 L 379.794 283.604 L 461.448 462.757 L 398.074 551.114 L 363.341 566.958 L 234.765 567.567 L 200.031 551.115 L 136.048 462.147 L 218.312 282.995 Z M 348.087 408.319 C 332.277 408.319 319.46 421.137 319.46 436.945 C 319.46 452.754 332.277 465.571 348.087 465.571 C 363.895 465.571 376.712 452.754 376.712 436.945 C 376.712 421.137 363.895 408.319 348.087 408.319 Z M 247.362 408 C 231.497 408 218.636 420.861 218.636 436.726 C 218.636 452.591 231.497 465.452 247.362 465.452 C 263.227 465.452 276.088 452.591 276.088 436.726 C 276.088 420.861 263.227 408 247.362 408 Z" style="stroke-linejoin: round; stroke-width: 4px; fill: rgb(170, 170, 170); stroke: rgb(170, 170, 170);" transform="matrix(1, 0, 0, 1, 36.639531, -3.92547)"/>
  <path style="stroke: rgb(170, 170, 170); fill: rgb(170, 170, 170);" d="M 198.89 552.08 C 210.403 566.512 214.25 567.983 234.679 569.096" transform="matrix(1, 0, 0, 1, 36.639531, -3.92547)"/>
  <path style="stroke: rgb(170, 170, 170); fill: rgb(170, 170, 170);" d="M 363.738 568.442 C 375.317 554.01 379.186 552.539 399.731 551.426" transform="matrix(-1, 0, 0, -1, 800.108532, 1115.942644)"/>
</svg>