<?xml version="1.0" encoding="utf-8"?>
<svg viewBox="0 0 340 301" xmlns="http://www.w3.org/2000/svg">
  <defs>
    <radialGradient gradientUnits="userSpaceOnUse" cx="267" cy="160" r="280" id="gradient-2" gradientTransform="matrix(1.653433, -0.000678, 0.000615, 1.501361, -163.708329, -240.193727)">
      
      <animate 
          attributeName="fx"
          attributeType="XML"
          values="390 ; 386.926 ; 377.821 ; 363.035 ; 343.137 ; 318.891 ; 291.229 ; 261.214 ; 230.000 ; 198.786 ; 168.771 ; 141.109 ; 116.863 ; 96.965 ; 82.179 ; 73.074 ; 70.000 ; 73.074 ; 82.179 ; 96.965 ; 116.863 ; 141.109 ; 168.771 ; 198.786 ; 230.000 ; 261.214 ; 291.229 ; 318.891 ; 343.137 ; 363.035 ; 377.821 ; 386.926 ; 390"
          dur="5.5s"
          repeatCount="indefinite"/>
        <animate 
          attributeName="fy"
          attributeType="XML"
          values="230 ; 261.214 ; 291.229 ; 318.891 ; 343.137 ; 363.035 ; 377.821 ; 386.926 ; 390.000 ; 386.926 ; 377.821 ; 363.035 ; 343.137 ; 318.891 ; 291.229 ; 261.214 ; 230.000 ; 198.786 ; 168.771 ; 141.109 ; 116.863 ; 96.965 ; 82.179 ; 73.074 ; 70.000 ; 73.074 ; 82.179 ; 96.965 ; 116.863 ; 141.109 ; 168.771 ; 198.786 ; 230"
          dur="5.5s"
          repeatCount="indefinite"/>
      <stop offset="0" style="stop-color: rgb(153, 46, 46);"/>
      <stop offset="1" style="stop-color: rgb(59, 34, 97);"/>
    </radialGradient>
  </defs>
  <path d="M 234.725 290.722 L 107.259 290.538 L 107.186 290.412 C 91.4 289.87 83.939 287.952 72.528 274.101 L 72.525 274.086 L 7.432 185.911 L 89.696 6.759 L 136.617 79.273 L 203.038 79.273 L 251.178 7.368 L 332.832 186.521 L 270.097 273.987 L 270.205 273.689 C 265.727 279.271 262.925 282.913 259.343 285.347 C 253.667 289.202 247.344 290.021 234.766 290.703 Z M 219.471 132.083 C 203.661 132.083 190.844 144.901 190.844 160.709 C 190.844 176.518 203.661 189.335 219.471 189.335 C 235.279 189.335 248.096 176.518 248.096 160.709 C 248.096 144.901 235.279 132.083 219.471 132.083 Z M 118.746 131.764 C 102.881 131.764 90.02 144.625 90.02 160.49 C 90.02 176.355 102.881 189.216 118.746 189.216 C 134.611 189.216 147.472 176.355 147.472 160.49 C 147.472 144.625 134.611 131.764 118.746 131.764 Z" style="stroke-linejoin: round; stroke: rgb(81, 47, 131); fill: url(#gradient-2);"/>
  <path style="fill: rgb(216, 216, 216); stroke: rgb(0, 0, 0);" d="M 311.428 156.782"/>
  <path style="fill: rgb(216, 216, 216); stroke: rgb(0, 0, 0);" d="M 276.818 149.586"/>
</svg>