<?xml version="1.0" encoding="utf-8"?>
<svg viewBox="0 0 338 296" xmlns="http://www.w3.org/2000/svg">
  <defs>
    <radialGradient gradientUnits="userSpaceOnUse" cx="267" cy="160" r="280" id="gradient-2" gradientTransform="matrix(1.653433, -0.000678, 0.000615, 1.501361, -163.708329, -240.193727)">
      
      <animate 
          attributeName="fx"
          attributeType="XML"
          values="390 ; 386.926 ; 377.821 ; 363.035 ; 343.137 ; 318.891 ; 291.229 ; 261.214 ; 230.000 ; 198.786 ; 168.771 ; 141.109 ; 116.863 ; 96.965 ; 82.179 ; 73.074 ; 70.000 ; 73.074 ; 82.179 ; 96.965 ; 116.863 ; 141.109 ; 168.771 ; 198.786 ; 230.000 ; 261.214 ; 291.229 ; 318.891 ; 343.137 ; 363.035 ; 377.821 ; 386.926 ; 390"
          dur="5.5s"
          repeatCount="indefinite"/>
        <animate 
          attributeName="fy"
          attributeType="XML"
          values="230 ; 261.214 ; 291.229 ; 318.891 ; 343.137 ; 363.035 ; 377.821 ; 386.926 ; 390.000 ; 386.926 ; 377.821 ; 363.035 ; 343.137 ; 318.891 ; 291.229 ; 261.214 ; 230.000 ; 198.786 ; 168.771 ; 141.109 ; 116.863 ; 96.965 ; 82.179 ; 73.074 ; 70.000 ; 73.074 ; 82.179 ; 96.965 ; 116.863 ; 141.109 ; 168.771 ; 198.786 ; 230"
          dur="5.5s"
          repeatCount="indefinite"/>
      <stop offset="0" style="stop-color: rgb(153, 46, 46);"/>
      <stop offset="1" style="stop-color: rgb(59, 34, 97);"/>
    </radialGradient>
  </defs>
  <path d="M 232.258 289.479 L 104.792 289.295 L 104.719 289.169 C 88.933 288.627 81.472 286.709 70.061 272.858 L 70.058 272.843 L 4.965 184.668 L 87.229 5.516 L 134.15 78.03 L 200.571 78.03 L 248.711 6.125 L 330.365 185.278 L 267.63 272.744 L 267.738 272.446 C 263.26 278.028 260.458 281.67 256.876 284.104 C 251.2 287.959 244.877 288.778 232.299 289.46 Z M 217.004 130.84 C 201.194 130.84 188.377 143.658 188.377 159.466 C 188.377 175.275 201.194 188.092 217.004 188.092 C 232.812 188.092 245.629 175.275 245.629 159.466 C 245.629 143.658 232.812 130.84 217.004 130.84 Z M 116.279 130.521 C 100.414 130.521 87.553 143.382 87.553 159.247 C 87.553 175.112 100.414 187.973 116.279 187.973 C 132.144 187.973 145.005 175.112 145.005 159.247 C 145.005 143.382 132.144 130.521 116.279 130.521 Z" style="stroke-linejoin: round; stroke: rgb(81, 47, 131); fill: url(#gradient-2); stroke-width: 0px;"/>
  <path style="fill: rgb(216, 216, 216); stroke: rgb(0, 0, 0); stroke-width: 0px;" d="M 310.616 155.539"/>
  <path style="fill: rgb(216, 216, 216); stroke: rgb(0, 0, 0); stroke-width: 0px;" d="M 276.006 148.343"/>
</svg>