<?xml version="1.0" encoding="utf-8"?>
<svg viewBox="0 0 340 297" xmlns="http://www.w3.org/2000/svg">
  <path d="M 233.344 289.047 L 105.878 288.863 L 105.805 288.737 C 90.019 288.195 82.558 286.277 71.147 272.426 L 71.144 272.411 L 6.051 184.236 L 88.315 5.084 L 135.236 77.598 L 201.657 77.598 L 249.797 5.693 L 331.451 184.846 L 268.716 272.312 L 268.824 272.014 C 264.346 277.596 261.544 281.238 257.962 283.672 C 252.286 287.527 245.963 288.346 233.385 289.028 Z M 218.09 130.408 C 202.28 130.408 189.463 143.226 189.463 159.034 C 189.463 174.843 202.28 187.66 218.09 187.66 C 233.898 187.66 246.715 174.843 246.715 159.034 C 246.715 143.226 233.898 130.408 218.09 130.408 Z M 117.365 130.089 C 101.5 130.089 88.639 142.95 88.639 158.815 C 88.639 174.68 101.5 187.541 117.365 187.541 C 133.23 187.541 146.091 174.68 146.091 158.815 C 146.091 142.95 133.23 130.089 117.365 130.089 Z" style="stroke-linejoin: round; stroke: rgb(81, 47, 131); fill: rgb(81, 47, 131);"/>
</svg>