<?xml version="1.0" encoding="utf-8"?>
<svg viewBox="0 0 337 296" xmlns="http://www.w3.org/2000/svg">
  <path d="M 134.684 77.631 L 201.105 77.631 L 249.245 5.726 L 330.899 184.879 L 267.525 273.236 L 232.792 289.08 L 104.216 289.689 L 69.482 273.237 L 5.499 184.269 L 87.763 5.117 Z M 217.538 130.441 C 201.728 130.441 188.911 143.259 188.911 159.067 C 188.911 174.876 201.728 187.693 217.538 187.693 C 233.346 187.693 246.163 174.876 246.163 159.067 C 246.163 143.259 233.346 130.441 217.538 130.441 Z M 116.813 130.122 C 100.948 130.122 88.087 142.983 88.087 158.848 C 88.087 174.713 100.948 187.574 116.813 187.574 C 132.678 187.574 145.539 174.713 145.539 158.848 C 145.539 142.983 132.678 130.122 116.813 130.122 Z" style="stroke-linejoin: round; stroke-width: 4px; fill: rgb(81, 47, 131); stroke: rgb(81, 47, 131);"/>
  <path style="fill: rgb(216, 216, 216); stroke: rgb(0, 0, 0);" d="M 242.327 72.794"/>
  <path style="fill: rgb(216, 216, 216); stroke: rgb(0, 0, 0);" d="M 207.717 65.598"/>
  <path style="fill: rgb(81, 47, 131); stroke: rgb(81, 47, 131);" d="M 68.341 274.202 C 79.854 288.634 83.701 290.105 104.13 291.218"/>
  <path style="fill: rgb(81, 47, 131); stroke: rgb(81, 47, 131);" d="M 233.188 290.564 C 244.767 276.132 248.636 274.661 269.181 273.548" transform="matrix(-1, 0, 0, -1, 502.368996, 564.112008)"/>
</svg>