<?xml version="1.0" encoding="utf-8"?>
<svg viewBox="0 0 338 299" xmlns="http://www.w3.org/2000/svg">
  <rect x="70.52" y="100" width="193.479" height="109.776" style="fill: rgb(255, 255, 255);"/>
  <path d="M 232.792 289.479 L 105.326 289.295 L 105.253 289.169 C 89.467 288.627 82.006 286.709 70.595 272.858 L 70.592 272.843 L 5.499 184.668 L 87.763 5.516 L 134.684 78.03 L 201.105 78.03 L 249.245 6.125 L 330.899 185.278 L 268.164 272.744 L 268.272 272.446 C 263.794 278.028 260.992 281.67 257.41 284.104 C 251.734 287.959 245.411 288.778 232.833 289.46 Z M 217.538 130.84 C 201.728 130.84 188.911 143.658 188.911 159.466 C 188.911 175.275 201.728 188.092 217.538 188.092 C 233.346 188.092 246.163 175.275 246.163 159.466 C 246.163 143.658 233.346 130.84 217.538 130.84 Z M 116.813 130.521 C 100.948 130.521 88.087 143.382 88.087 159.247 C 88.087 175.112 100.948 187.973 116.813 187.973 C 132.678 187.973 145.539 175.112 145.539 159.247 C 145.539 143.382 132.678 130.521 116.813 130.521 Z" style="stroke-linejoin: round; stroke: rgb(81, 47, 131); fill: rgb(81, 47, 131);"/>
</svg>